<?xml version="1.0" standalone="no"?>
<!DOCTYPE svg PUBLIC "-//W3C//DTD SVG 1.1//EN" "http://www.w3.org/Graphics/SVG/1.1/DTD/svg11.dtd" >
<svg xmlns="http://www.w3.org/2000/svg">
<metadata></metadata>
<defs>
<font id="geoslb712_md_btmedium" horiz-adv-x="1014" >
<font-face units-per-em="2048" ascent="1556" descent="-492" />
<missing-glyph horiz-adv-x="508" />
<glyph horiz-adv-x="2048" />
<glyph horiz-adv-x="2048" />
<glyph unicode="&#xd;" horiz-adv-x="508" />
<glyph unicode=" "  horiz-adv-x="508" />
<glyph unicode="&#x09;" horiz-adv-x="508" />
<glyph unicode="&#xa0;" horiz-adv-x="508" />
<glyph unicode="!" horiz-adv-x="563" d="M168 0v252h227v-252h-227zM186 973v448h191v-448l-43 -590h-105z" />
<glyph unicode="&#x22;" horiz-adv-x="614" d="M90 881v555h139v-555h-139zM385 881v555h139v-555h-139z" />
<glyph unicode="#" horiz-adv-x="1575" d="M88 449l53 147h310l92 262h-330l51 146h332l162 454h166l-162 -454h256l164 454h164l-160 -454h301l-51 -146h-303l-93 -262h322l-51 -147h-322l-162 -453h-165l161 453h-258l-162 -453h-165l159 453h-309zM616 594h261l92 264h-260z" />
<glyph unicode="$" d="M57 1061q0 165 105 263.5t284 102.5v152h109v-159q51 -12 94.5 -36t83.5 -63v94h148v-371h-150v103q-33 46 -75 77t-101 52v-451l100 -30q144 -44 220.5 -146.5t76.5 -251.5q0 -180 -106 -289t-291 -119v-167h-109v176q-57 10 -110.5 37t-104.5 71v-88h-161v431h161v-130 q45 -63 95 -101t120 -60v510l-110 37q-137 45 -208 135.5t-71 220.5zM225 1079q0 -89 49.5 -141t171.5 -88v440q-106 -9 -163.5 -64t-57.5 -147zM555 150q112 13 170.5 74.5t58.5 164.5q0 102 -56.5 167t-172.5 97v-503z" />
<glyph unicode="%" horiz-adv-x="1460" d="M53 1034q0 190 76 301t203 111q125 0 200.5 -111t75.5 -301t-75.5 -301.5t-200.5 -111.5q-126 0 -202.5 112t-76.5 301zM199 1034q0 -130 36 -207t95 -77t96 77.5t37 206.5q0 131 -36.5 207t-96.5 76t-95.5 -75.5t-35.5 -207.5zM225 -29l869 1475h139l-868 -1475h-140z M850 383q0 191 75 302.5t201 111.5t201.5 -112t75.5 -302t-75.5 -301t-201.5 -111t-201 111t-75 301zM993 383q0 -129 37 -206t96 -77q60 0 97 77t37 206q0 131 -36.5 208t-97.5 77q-60 0 -96.5 -77t-36.5 -208z" />
<glyph unicode="&#x26;" horiz-adv-x="1450" d="M92 436q0 155 77.5 267t236.5 184q-40 85 -58 145t-18 107q0 136 89 221.5t232 85.5q153 0 241.5 -81.5t88.5 -221.5q0 -114 -72.5 -193t-228.5 -135l285 -383q39 80 67.5 162t46.5 168h287v-178h-156q-20 -75 -53 -149.5t-80 -151.5l86 -113h203v-170h-313l-97 129 q-90 -84 -179.5 -121t-205.5 -37q-206 0 -342.5 132.5t-136.5 332.5zM295 465q0 -128 90 -219.5t217 -91.5q66 0 128 27t126 85l-352 475q-100 -36 -154.5 -108.5t-54.5 -167.5zM506 1151q0 -40 17.5 -87.5t56.5 -111.5q120 36 172.5 82t52.5 117q0 64 -42 103.5t-112 39.5 q-66 0 -105.5 -38.5t-39.5 -104.5z" />
<glyph unicode="'" horiz-adv-x="317" d="M90 881v555h139v-555h-139z" />
<glyph unicode="(" horiz-adv-x="768" d="M211 563q0 342 137 572.5t387 310.5v-131q-167 -92 -247 -275.5t-80 -476.5q0 -295 79.5 -477.5t247.5 -273.5v-134q-250 81 -387 311.5t-137 573.5z" />
<glyph unicode=")" horiz-adv-x="768" d="M39 -190q167 92 247.5 275.5t80.5 475.5q0 296 -80 479t-248 275v131q251 -81 387.5 -311t136.5 -572t-137 -573.5t-387 -311.5v132z" />
<glyph unicode="*" horiz-adv-x="920" d="M119 1147l47 139l235 -94l-16 254h147l-16 -254l238 94l45 -139l-248 -64l164 -196l-119 -86l-137 215l-135 -215l-119 86l162 196z" />
<glyph unicode="+" horiz-adv-x="1706" d="M254 541v139h528v541h142v-541h528v-139h-528v-541h-142v541h-528z" />
<glyph unicode="," horiz-adv-x="508" d="M123 -172q64 14 88.5 44.5t24.5 96.5v31h-109v252h231v-252q0 -135 -58.5 -206t-176.5 -79v113z" />
<glyph unicode="-" horiz-adv-x="668" d="M86 422v176h498v-176h-498z" />
<glyph unicode="." horiz-adv-x="508" d="M135 0v252h238v-252h-238z" />
<glyph unicode="/" horiz-adv-x="627" d="M-53 -190l551 1636h127l-551 -1636h-127z" />
<glyph unicode="0" d="M70 709q0 350 114.5 543.5t321.5 193.5q211 0 325.5 -197t114.5 -561q0 -334 -118 -525.5t-322 -191.5q-207 0 -321.5 193.5t-114.5 544.5zM262 719q0 -272 65.5 -425t180.5 -153q112 0 178 149t66 406q0 289 -63.5 443.5t-180.5 154.5q-116 0 -181 -151t-65 -424z" />
<glyph unicode="1" d="M240 0v176h184v1071h-184v174h374v-1245h177v-176h-551z" />
<glyph unicode="2" d="M49 0v18q0 152 49.5 279t145.5 223q68 69 178.5 151.5t134.5 102.5q80 69 111.5 131t31.5 148q0 105 -57.5 168t-153.5 63q-120 0 -176.5 -93.5t-59.5 -295.5h-177q-1 10 -1.5 22.5t-0.5 34.5q0 235 115 364.5t321 129.5q177 0 285 -108.5t108 -286.5q0 -79 -23.5 -148 t-70.5 -127q-79 -96 -252 -217q-62 -43 -90 -65q-105 -84 -157 -161.5t-58 -156.5h483v326h176v-502h-862z" />
<glyph unicode="3" d="M57 457v16h183v-6q0 -160 67.5 -250t186.5 -90q108 0 178.5 74.5t70.5 189.5q0 136 -82.5 206.5t-242.5 70.5q-8 0 -23.5 -1t-23.5 -1v165h32q145 0 222 62t77 178q0 101 -56.5 160t-153.5 59q-112 0 -166 -72t-54 -221v-8h-176v35q0 196 105 309t286 113 q184 0 295 -101.5t111 -267.5q0 -114 -55.5 -194.5t-165.5 -124.5q135 -49 197.5 -135.5t62.5 -225.5q0 -192 -122.5 -309t-324.5 -117q-200 0 -314 129t-114 357z" />
<glyph unicode="4" d="M29 561l557 885h176v-885h201v-158h-201v-227h137v-176h-467v176h160v227h-488q-6 52 -24 89t-51 69zM199 561h393l8 647z" />
<glyph unicode="5" d="M51 436v29h187v-8q0 -150 60 -231t171 -81q118 0 188 86t70 232q0 139 -66.5 216t-185.5 77q-79 0 -141.5 -41.5t-100.5 -120.5l-135 106l76 721h676v-383h-166v209h-383l-41 -407q63 46 126 68t132 22q185 0 294.5 -124.5t109.5 -334.5q0 -225 -124.5 -362.5 t-328.5 -137.5q-198 0 -308 122.5t-110 342.5z" />
<glyph unicode="6" d="M72 672q0 374 123.5 574t353.5 200q177 0 279 -101.5t102 -277.5v-33h-168q0 131 -54 195.5t-161 64.5q-137 0 -209 -129t-72 -377v-20q78 70 154 103.5t155 33.5q168 0 270.5 -126.5t102.5 -336.5q0 -211 -118.5 -341t-309.5 -130q-219 0 -333.5 179t-114.5 522z M264 524q0 -180 71.5 -282.5t194.5 -102.5q109 0 177.5 83t68.5 218q0 142 -64 222.5t-175 80.5q-66 0 -136.5 -38t-134.5 -110q-1 -12 -1.5 -27t-0.5 -44z" />
<glyph unicode="7" d="M86 1032v389h862v-143q-189 -297 -283 -565t-94 -514v-23h152v-176h-520v176h165q7 249 92.5 499t278.5 572h-491v-215h-162z" />
<glyph unicode="8" d="M57 381q0 138 61.5 233t178.5 138q-99 38 -154 123.5t-55 199.5q0 163 117 267t303 104q185 0 302.5 -104t117.5 -267q0 -114 -55 -199.5t-154 -123.5q117 -43 178 -138t61 -233q0 -179 -126 -294.5t-324 -115.5t-324.5 115.5t-126.5 294.5zM252 406q0 -108 74 -183.5 t180 -75.5q108 0 182 75t74 184q0 107 -74 181.5t-182 74.5q-107 0 -180.5 -75t-73.5 -181zM274 1065q0 -95 67.5 -162t164.5 -67q99 0 166 66.5t67 162.5t-67 162.5t-166 66.5q-98 0 -165 -66.5t-67 -162.5z" />
<glyph unicode="9" d="M59 975q0 211 119 341t309 130q220 0 334.5 -178t114.5 -520q0 -384 -125 -580.5t-369 -196.5q-168 0 -266 103t-98 280v29h168q0 -130 53.5 -195t161.5 -65q137 0 208.5 129t71.5 377v20q-76 -68 -152.5 -101.5t-156.5 -33.5q-167 0 -270 126t-103 335zM231 979 q0 -142 65 -223.5t177 -81.5q65 0 135.5 39t134.5 110q2 14 2 28.5v43.5q0 180 -71 282.5t-195 102.5q-109 0 -178.5 -83.5t-69.5 -217.5z" />
<glyph unicode=":" horiz-adv-x="555" d="M158 0v252h237v-252h-237zM158 750v249h237v-249h-237z" />
<glyph unicode=";" horiz-adv-x="555" d="M156 -172q64 14 88 44.5t24 96.5v31h-108v252h231v-252q0 -135 -58.5 -206t-176.5 -79v113zM156 750v249h237v-249h-237z" />
<glyph unicode="&#x3c;" horiz-adv-x="1706" d="M264 547v129l1178 483v-153l-969 -396l969 -393v-154z" />
<glyph unicode="=" horiz-adv-x="1706" d="M254 342v139h1198v-139h-1198zM254 739v140h1198v-140h-1198z" />
<glyph unicode="&#x3e;" horiz-adv-x="1706" d="M264 63v154l971 393l-971 396v153l1178 -483v-129z" />
<glyph unicode="?" horiz-adv-x="958" d="M47 1010v24q0 190 111 301t301 111q180 0 296.5 -107t116.5 -268q0 -168 -101.5 -272.5t-285.5 -124.5l-18 -271h-111l-24 441q19 -6 37.5 -9.5t33.5 -3.5q130 0 202.5 63t72.5 175q0 96 -62.5 157.5t-160.5 61.5q-105 0 -165.5 -68t-60.5 -188v-22h-182zM299 0v252h227 v-252h-227z" />
<glyph unicode="@" horiz-adv-x="2048" d="M106 522q0 165 52 313t151 269q146 178 351.5 270t455.5 92q163 0 310 -45t253 -127q130 -100 197.5 -231t67.5 -283q0 -175 -63.5 -315t-184.5 -236q-68 -54 -149.5 -83t-166.5 -29q-99 0 -149.5 39.5t-50.5 117.5v19q-55 -89 -129 -131.5t-172 -42.5q-153 0 -233.5 85 t-80.5 247q0 235 138 394t339 159q85 0 145.5 -37.5t96.5 -112.5l57 115h132l-146 -576q-4 -16 -6 -31t-2 -28q0 -46 25.5 -70t74.5 -24q48 0 102.5 26.5t106.5 75.5q80 76 125 186.5t45 233.5q0 259 -190.5 420t-499.5 161q-133 0 -246 -28t-211 -86q-191 -114 -296 -299.5 t-105 -409.5q0 -177 61.5 -308t192.5 -230q100 -77 236.5 -118.5t287.5 -41.5q169 0 328.5 49t292.5 141l55 -82q-148 -111 -314.5 -167t-349.5 -56q-190 0 -348 47t-280 140q-154 118 -230 274t-76 354zM725 446q0 -105 48.5 -162t137.5 -57q97 0 174.5 69t104.5 179 l59 236q-17 88 -68.5 136t-129.5 48q-138 0 -232 -130t-94 -319z" />
<glyph unicode="A" horiz-adv-x="1294" d="M-57 0v184h163l371 1063h-184v174h711v-174h-175l367 -1063h154v-184h-533v184h172l-110 320h-480l-108 -320h160v-184h-508zM461 676h356l-176 528z" />
<glyph unicode="B" horiz-adv-x="1225" d="M41 0v184h168v1063h-168v174h571q214 0 326.5 -92.5t112.5 -269.5q0 -109 -51 -181.5t-162 -121.5q141 -41 215.5 -132.5t74.5 -222.5q0 -196 -124 -298.5t-365 -102.5h-598zM412 178h198q147 0 227.5 63t80.5 177q0 116 -87.5 178.5t-250.5 62.5h-168v-481zM412 825h149 q142 0 214.5 51.5t72.5 153.5q0 106 -70.5 161.5t-204.5 55.5h-161v-422z" />
<glyph unicode="C" horiz-adv-x="1540" d="M70 709q0 323 200.5 530t511.5 207q158 0 267.5 -49.5t191.5 -157.5v182h174v-456h-188q-63 145 -171 218.5t-259 73.5q-227 0 -367.5 -150.5t-140.5 -395.5q0 -244 138 -396.5t353 -152.5q172 0 309.5 111.5t196.5 299.5l176 -104q-70 -233 -251 -365.5t-429 -132.5 q-313 0 -512.5 206.5t-199.5 531.5z" />
<glyph unicode="D" horiz-adv-x="1464" d="M35 0v184h174v1063h-174v174h657q334 0 518.5 -186.5t184.5 -523.5q0 -338 -184.5 -524.5t-518.5 -186.5h-657zM412 186h262q245 0 370 134.5t125 396.5q0 254 -122 392t-347 138h-288v-1061z" />
<glyph unicode="E" horiz-adv-x="1300" d="M41 0v184h168v1063h-168v174h1161v-422h-172v248h-618v-432h553v-170h-553v-461h618v271h172v-455h-1161z" />
<glyph unicode="F" horiz-adv-x="1157" d="M41 0v184h168v1063h-168v174h1079v-422h-170v248h-538v-432h475v-170h-475v-461h186v-184h-557z" />
<glyph unicode="G" horiz-adv-x="1561" d="M72 709q0 323 202 530t514 207q159 0 270.5 -50t190.5 -157v182h172v-456h-186q-63 145 -171.5 218.5t-260.5 73.5q-229 0 -371.5 -150.5t-142.5 -395.5q0 -252 144.5 -400.5t387.5 -148.5q188 0 305 93t134 257h-261v176h487q2 -11 2.5 -23.5t0.5 -35.5 q0 -301 -190.5 -479.5t-510.5 -178.5q-316 0 -516 206.5t-200 531.5z" />
<glyph unicode="H" horiz-adv-x="1442" d="M41 0v184h168v1063h-168v174h547v-174h-176v-401h616v401h-174v174h547v-174h-168v-1063h168v-184h-547v184h174v492h-616v-492h176v-184h-547z" />
<glyph unicode="I" horiz-adv-x="621" d="M41 0v184h168v1063h-168v174h541v-174h-170v-1063h170v-184h-541z" />
<glyph unicode="J" horiz-adv-x="616" d="M-66 -131q25 -8 48.5 -12t46.5 -4q101 0 140.5 53t39.5 272v1069h-168v174h541v-174h-170v-1149q0 -228 -82.5 -329t-266.5 -101q-39 0 -70 3t-59 10v188z" />
<glyph unicode="K" horiz-adv-x="1237" d="M41 0v184h168v1063h-168v174h541v-174h-170v-1063h170v-184h-541zM412 756l483 491h-156v174h531v-174h-146l-460 -481l466 -582h168v-184h-557v184h142z" />
<glyph unicode="L" horiz-adv-x="1208" d="M41 0v184h168v1063h-168v174h541v-174h-170v-1063h512v482h172v-666h-1055z" />
<glyph unicode="M" horiz-adv-x="1864" d="M41 0v184h172v1063h-172v174h502l391 -1009l401 1009h488v-174h-174v-1063h174v-184h-557v184h172v1065l-508 -1249h-41l-496 1266v-1082h203v-184h-555z" />
<glyph unicode="N" horiz-adv-x="1524" d="M35 0v184h174v1063h-174v174h452l643 -1108v934h-174v174h562v-174h-205v-1247h-232l-690 1192v-1008h174v-184h-530z" />
<glyph unicode="O" horiz-adv-x="1565" d="M70 709q0 322 201 529.5t511 207.5q315 0 513 -206t198 -531t-199 -531.5t-512 -206.5t-512.5 206.5t-199.5 531.5zM289 711q0 -244 138 -396.5t353 -152.5q216 0 355 153t139 396q0 241 -138.5 392.5t-355.5 151.5q-213 0 -352 -152t-139 -392z" />
<glyph unicode="P" horiz-adv-x="1231" d="M41 0v184h168v1063h-168v174h571q283 0 414 -105t131 -329q0 -227 -132.5 -334.5t-412.5 -107.5h-200v-361h170v-184h-541zM412 715h170q194 0 276 62t82 204t-82 204t-276 62h-170v-532z" />
<glyph unicode="Q" horiz-adv-x="1565" d="M70 709q0 322 201.5 529.5t510.5 207.5q315 0 513 -206t198 -531q0 -286 -159.5 -485.5t-420.5 -239.5q103 -33 163.5 -46.5t101.5 -13.5q13 0 32.5 2.5t49.5 7.5l-58 -182q-10 -5 -21.5 -7.5t-27.5 -2.5q-112 0 -267.5 63.5t-203.5 63.5q-38 0 -75.5 -13.5t-78.5 -41.5 l-69 100q29 33 61 51.5t73 28.5q-239 58 -381 252t-142 463zM289 711q0 -244 138 -396.5t353 -152.5q216 0 355 153t139 396q0 241 -138.5 392.5t-355.5 151.5q-213 0 -352 -152t-139 -392z" />
<glyph unicode="R" horiz-adv-x="1223" d="M41 0v184h168v1063h-168v174h608q225 0 343 -92.5t118 -269.5q0 -141 -73 -234.5t-206 -122.5l242 -518h158v-184h-285l-321 684h-213v-500h170v-184h-541zM412 840h161q168 0 246 48.5t78 151.5q0 114 -71.5 164.5t-237.5 50.5h-176v-415z" />
<glyph unicode="S" horiz-adv-x="1124" d="M102 1061q0 167 111.5 276t282.5 109q89 0 168.5 -30.5t142.5 -88.5v94h166v-407h-168v104q-61 74 -136 114t-155 40q-96 0 -154.5 -53t-58.5 -140q0 -76 41 -122.5t137 -79.5l246 -86q156 -55 232.5 -154.5t76.5 -249.5q0 -189 -118.5 -302.5t-317.5 -113.5 q-90 0 -167 29.5t-146 89.5v-90h-181v487h181v-127q54 -101 133.5 -153.5t177.5 -52.5q104 0 168.5 62t64.5 161q0 85 -47 146t-137 91l-252 84q-144 49 -217.5 140.5t-73.5 222.5z" />
<glyph unicode="T" horiz-adv-x="1262" d="M76 870v551h1108v-551h-170v377h-283v-1063h172v-184h-545v184h170v1063h-280v-377h-172z" />
<glyph unicode="U" horiz-adv-x="1477" d="M25 1247v174h557v-174h-172v-760q0 -168 73 -248.5t228 -80.5q157 0 233 80.5t76 248.5v760h-174v174h543v-174h-172v-659q0 -334 -118.5 -475.5t-391.5 -141.5q-272 0 -390 141t-118 476v659h-174z" />
<glyph unicode="V" horiz-adv-x="1270" d="M-70 1247v174h527v-174h-150l336 -977l336 977h-166v174h526v-174h-178l-428 -1247h-213l-426 1247h-164z" />
<glyph unicode="W" horiz-adv-x="1849" d="M-37 1247v174h526v-174h-178l246 -952l231 952h-178v174h641v-174h-176l246 -952l231 952h-178v174h520v-174h-178l-309 -1247h-188l-301 1126l-277 -1126h-188l-338 1247h-152z" />
<glyph unicode="X" horiz-adv-x="1229" d="M-29 0v184h164l365 527l-353 536h-176v174h543v-174h-119l228 -352l233 352h-162v174h523v-174h-154l-336 -510l367 -553h170v-184h-570v184h154l-244 371l-246 -371h156v-184h-543z" />
<glyph unicode="Y" horiz-adv-x="1110" d="M-113 1247v174h566v-174h-154l268 -422l277 422h-178v174h555v-174h-174l-394 -596v-467h185v-184h-576v184h187v467l-390 596h-172z" />
<glyph unicode="Z" horiz-adv-x="1114" d="M43 0v180l723 1067h-512v-248h-170v422h934v-174l-725 -1067h584v266h172v-446h-1006z" />
<glyph unicode="[" horiz-adv-x="768" d="M266 -299v1720h473v-141h-284v-1436h284v-143h-473z" />
<glyph unicode="\" horiz-adv-x="627" d="M-10 1446h127l551 -1636h-127z" />
<glyph unicode="]" horiz-adv-x="768" d="M29 -156h284v1436h-284v141h473v-1720h-473v143z" />
<glyph unicode="^" horiz-adv-x="2048" d="M420 901l510 557h186l510 -557h-180l-422 420l-424 -420h-180z" />
<glyph unicode="_" horiz-adv-x="1024" d="M0 -340h1024v-143h-1024v143z" />
<glyph unicode="`" horiz-adv-x="1024" d="M250 1483h201l204 -348h-120z" />
<glyph unicode="a" horiz-adv-x="1051" d="M59 289q0 147 97.5 237t257.5 90q55 0 125.5 -17.5t158.5 -53.5v59q0 136 -51 199t-160 63q-77 0 -135 -31t-106 -98l-174 45q48 116 159.5 179t270.5 63q200 0 288.5 -96t88.5 -320v-432h151v-176h-325v94q-78 -63 -155 -93t-163 -30q-147 0 -237.5 88t-90.5 230z M256 295q0 -60 46 -99.5t118 -39.5q60 0 129.5 30t155.5 93v73q-84 50 -142 70t-114 20q-87 0 -140 -40.5t-53 -106.5z" />
<glyph unicode="b" horiz-adv-x="1208" d="M31 0v176h143v1079h-143v166h319v-571q85 79 166 114t174 35q202 0 326.5 -141t124.5 -373q0 -233 -124 -373.5t-327 -140.5q-92 0 -171.5 35t-162.5 113v-119h-325zM356 489q0 -153 82 -246t213 -93q138 0 216.5 90.5t78.5 248.5q0 159 -78.5 249.5t-216.5 90.5 q-137 0 -216 -90.5t-79 -249.5z" />
<glyph unicode="c" horiz-adv-x="1096" d="M66 498q0 230 136.5 378t346.5 148q86 0 157.5 -27.5t137.5 -85.5v88h160v-372h-160q-28 109 -96 166t-170 57q-144 0 -227 -93.5t-83 -256.5q0 -160 82.5 -252t224.5 -92q101 0 183.5 52t132.5 148l158 -77q-58 -143 -185 -225.5t-289 -82.5q-227 0 -368 145t-141 382z " />
<glyph unicode="d" horiz-adv-x="1208" d="M70 485q0 233 123.5 373.5t324.5 140.5q95 0 176 -35.5t164 -113.5v405h-143v166h319v-1245h144v-176h-326v119q-82 -78 -161.5 -113t-172.5 -35q-201 0 -324.5 141t-123.5 373zM262 489q0 -157 80 -248t217 -91q130 0 211.5 93t81.5 246q0 160 -78 250t-215 90 q-138 0 -217.5 -90.5t-79.5 -249.5z" />
<glyph unicode="e" horiz-adv-x="1120" d="M66 498q0 237 138 381.5t361 144.5q231 0 358.5 -151.5t127.5 -426.5h-785q4 -131 89.5 -210.5t224.5 -79.5q97 0 181 46t136 130l158 -82q-77 -137 -198 -208t-279 -71q-234 0 -373 143.5t-139 383.5zM283 594h567q-15 128 -88 196t-197 68q-123 0 -197.5 -69.5 t-84.5 -194.5z" />
<glyph unicode="f" horiz-adv-x="555" d="M27 0v176h151v658h-151v165h151v107q0 178 58 259t184 81q111 0 174 -61.5t74 -180.5l-162 -22q-12 60 -29 82t-49 22q-39 0 -54.5 -37t-15.5 -147v-103h166v-165h-166v-658h166v-176h-497z" />
<glyph unicode="g" horiz-adv-x="1208" d="M66 498q0 227 123.5 364t326.5 137q96 0 176.5 -34t163.5 -111v145h320v-165h-144v-639v-17q0 -128 -12 -197t-41 -122q-58 -106 -162 -160.5t-250 -54.5q-113 0 -212 31.5t-181 93.5l113 131q67 -54 135 -78.5t149 -24.5q140 0 209.5 74t69.5 221v64 q-62 -81 -146 -121.5t-188 -40.5q-203 0 -326.5 137.5t-123.5 366.5zM260 496q0 -155 79.5 -243.5t217.5 -88.5q131 0 212 91t81 241q0 155 -78.5 244t-214.5 89q-138 0 -217.5 -89t-79.5 -244z" />
<glyph unicode="h" horiz-adv-x="1104" d="M33 0v176h143v1079h-143v166h323v-569q96 77 176 112t160 35q132 0 187 -73.5t55 -282.5v-467h147v-176h-327v569q0 180 -28 225.5t-99 45.5q-65 0 -130.5 -37t-140.5 -117v-510h146v-176h-469z" />
<glyph unicode="i" horiz-adv-x="537" d="M39 0v176h141v658h-141v165h321v-823h148v-176h-469zM139 1305q0 48 34 82t83 34q48 0 83.5 -34.5t35.5 -81.5q0 -51 -34.5 -85t-84.5 -34t-83.5 33.5t-33.5 85.5z" />
<glyph unicode="j" horiz-adv-x="508" d="M-49 -186q5 -1 12 -1q35 -3 49 -3q89 0 124.5 36t35.5 134v854h-141v165h321v-962v-70q0 -86 -12 -132t-39 -83q-39 -53 -99.5 -80.5t-135.5 -27.5q-27 0 -54.5 2.5t-60.5 7.5v160zM131 1305q0 47 35 81.5t84 34.5q47 0 82 -34.5t35 -81.5q0 -51 -34 -85t-83 -34 q-51 0 -85 34t-34 85z" />
<glyph unicode="k" horiz-adv-x="1071" d="M33 0v176h143v1079h-143v166h323v-1245h146v-176h-469zM362 524l367 310h-131v165h459v-165h-117l-350 -295l342 -363h143v-176h-227z" />
<glyph unicode="l" horiz-adv-x="537" d="M33 0v176h143v1079h-143v166h323v-1245h146v-176h-469z" />
<glyph unicode="m" horiz-adv-x="1692" d="M35 0v176h145v658h-145v165h321v-153q99 81 181 117t163 36q92 0 149.5 -40t80.5 -119q96 82 181.5 120.5t170.5 38.5q131 0 186.5 -75t55.5 -281v-467h145v-176h-332v662q0 90 -30.5 134t-94.5 44t-130 -37.5t-138 -116.5v-510h146v-176h-332v659q0 92 -31 136.5 t-96 44.5q-64 0 -129 -37.5t-137 -116.5v-510h145v-176h-475z" />
<glyph unicode="n" horiz-adv-x="1110" d="M39 0v176h141v658h-141v165h313v-153q100 81 182.5 118t163.5 37q131 0 185.5 -73.5t54.5 -284.5v-467h147v-176h-327v569q0 178 -27.5 224.5t-99.5 46.5q-65 0 -130.5 -37t-140.5 -117v-510h148v-176h-469z" />
<glyph unicode="o" horiz-adv-x="1133" d="M66 498q0 237 138 381.5t361 144.5q224 0 363 -145.5t139 -380.5q0 -236 -139 -381.5t-363 -145.5q-223 0 -361 145t-138 382zM264 500q0 -160 81 -252t220 -92q141 0 221 91t80 253t-79.5 253t-221.5 91q-140 0 -220.5 -91.5t-80.5 -252.5z" />
<glyph unicode="p" horiz-adv-x="1208" d="M31 -158h143v992h-143v165h319v-149q85 79 166 114t174 35q202 0 325.5 -140.5t123.5 -373.5q0 -232 -123.5 -373t-325.5 -141q-92 0 -171.5 35t-162.5 113v-277h191v-174h-516v174zM356 489q0 -154 81.5 -246.5t211.5 -92.5q138 0 217.5 90.5t79.5 248.5 q0 159 -79.5 249.5t-217.5 90.5q-136 0 -214.5 -90t-78.5 -250z" />
<glyph unicode="q" horiz-adv-x="1208" d="M70 485q0 233 123.5 374.5t324.5 141.5q94 0 175 -36t165 -115v149h320v-165h-144v-992h144v-174h-516v174h190v277q-82 -78 -161.5 -113t-172.5 -35q-201 0 -324.5 141t-123.5 373zM262 489q0 -157 80 -248t217 -91q130 0 211.5 93t81.5 246q0 160 -78 250t-215 90 q-138 0 -217.5 -90.5t-79.5 -249.5z" />
<glyph unicode="r" horiz-adv-x="737" d="M39 0v176h141v658h-141v165h313v-196q52 114 126 164.5t192 50.5q17 0 36 -0.5t39 -1.5v-193q-1 0 -6 1q-46 3 -69 3q-161 0 -235.5 -92t-74.5 -295v-264h179v-176h-500z" />
<glyph unicode="s" horiz-adv-x="954" d="M80 725q0 127 99.5 213t248.5 86q77 0 144.5 -25.5t121.5 -74.5v75h154v-325h-154q-7 90 -77.5 144t-178.5 54q-79 0 -125.5 -35t-46.5 -94q0 -50 37 -80t125 -49l170 -34q143 -31 213 -101.5t70 -183.5q0 -146 -100.5 -235t-266.5 -89q-81 0 -150 24.5t-120 72.5v-68 h-160v338h160q10 -98 79.5 -153.5t180.5 -55.5q86 0 140 38.5t54 98.5q0 51 -40 82t-142 55l-154 35q-147 35 -214.5 103.5t-67.5 183.5z" />
<glyph unicode="t" horiz-adv-x="559" d="M29 834v165h131v134l180 149v-283h186v-165h-186v-558q0 -73 17.5 -99.5t62.5 -26.5q23 0 47.5 6.5t58.5 21.5v-174q-38 -16 -77.5 -24.5t-79.5 -8.5q-116 0 -162.5 55t-46.5 220v588h-131z" />
<glyph unicode="u" horiz-adv-x="1104" d="M23 834v165h327v-618q0 -156 28.5 -202t100.5 -46q65 0 130.5 37t140.5 117v547h-154v165h332v-823h143v-176h-315v127q-101 -82 -182.5 -119t-161.5 -37q-132 0 -187 74.5t-55 284.5v504h-147z" />
<glyph unicode="v" horiz-adv-x="995" d="M-39 834v165h449v-165h-111l203 -568l219 568h-139v165h442v-165h-139l-320 -834h-155l-304 834h-145z" />
<glyph unicode="w" horiz-adv-x="1540" d="M-2 834v165h387v-165h-88l170 -558l182 558h-106v165h452v-165h-88l170 -558l183 558h-107v165h379v-165h-100l-304 -834h-143l-225 725l-242 -725h-141l-271 834h-108z" />
<glyph unicode="x" horiz-adv-x="1034" d="M4 0v176h137l269 320l-304 338h-81v165h417v-161h-114l194 -217l183 217h-127v161h393v-165h-86l-262 -318l305 -340h88v-176h-418v172h111l-199 221l-186 -221h120v-172h-440z" />
<glyph unicode="y" horiz-adv-x="1006" d="M-10 834v165h420v-165h-115l221 -558l215 558h-117v165h400v-165h-117l-448 -1166h-340v166h237l76 197l-320 803h-112z" />
<glyph unicode="z" horiz-adv-x="979" d="M53 0v195l615 651h-408v-215h-166v368h791v-190l-613 -645h437v211h176v-375h-832z" />
<glyph unicode="{" horiz-adv-x="1024" d="M168 457v149q8 0 23 -1t22 -1q130 0 184 60.5t54 207.5v246q0 148 22.5 210.5t77.5 96.5q45 28 108.5 40t169.5 12h37v-150h-41q-120 0 -161 -44.5t-41 -184.5v-242q0 -160 -44.5 -228t-156.5 -98q113 -28 157 -96t44 -229v-242q0 -141 41.5 -185t162.5 -44h39v-148h-43 q-108 0 -169 11.5t-103 37.5q-55 34 -77.5 97t-22.5 211v245q0 149 -54.5 210t-185.5 61q-7 0 -21.5 -1t-21.5 -1z" />
<glyph unicode="|" horiz-adv-x="1024" d="M438 -483v2048h150v-2048h-150z" />
<glyph unicode="}" horiz-adv-x="1024" d="M160 -266h39q120 0 162 45t42 186v240q0 160 44.5 228t156.5 97q-112 30 -156.5 98t-44.5 228v242q0 140 -42 184.5t-162 44.5h-39v150h37q107 0 171 -12.5t107 -39.5q55 -34 77.5 -96.5t22.5 -210.5v-246q0 -147 54 -207.5t184 -60.5q7 0 22 1t23 1v-149q-7 0 -22 1 t-21 1q-132 0 -186 -60.5t-54 -210.5v-245q0 -148 -22.5 -211t-77.5 -97q-42 -26 -103 -37.5t-169 -11.5h-43v148z" />
<glyph unicode="~" horiz-adv-x="1706" d="M178 451v155q106 72 202 108t185 36q62 0 127.5 -13.5t163.5 -48.5q16 -5 47 -17q159 -57 240 -57q88 0 179.5 37t207.5 119v-156q-104 -72 -199 -106.5t-190 -34.5q-93 0 -256 58q-22 8 -34 12l-15 5q-176 60 -273 60q-84 0 -175 -37t-210 -120z" />
<glyph unicode="&#xa0;" />
<glyph unicode="&#xa1;" horiz-adv-x="563" d="M168 1171v250h227v-250h-227zM186 0v451l43 587h105l43 -587v-451h-191z" />
<glyph unicode="&#xa2;" d="M43 510q0 225 126.5 370.5t319.5 145.5q28 0 90 -7q7 -1 11 -1l84 260h112l-94 -299q27 -18 77 -56l9 -8v89h152v-365h-139q-23 74 -57.5 122.5t-86.5 80.5l-214 -664q29 -7 55 -10.5t49 -3.5q90 0 171.5 54.5t129.5 148.5l135 -70q-54 -141 -175.5 -222t-279.5 -81 q-33 0 -67 6t-70 18l-92 -282h-119l104 325q-112 60 -171.5 175.5t-59.5 273.5zM217 512q0 -98 29.5 -170t85.5 -111l209 639h-21q-133 0 -218 -100t-85 -258z" />
<glyph unicode="&#xa3;" d="M14 180q0 87 58 141t151 54q43 0 78.5 -10.5t71.5 -32.5v26q0 64 -12.5 131t-38.5 142h-275v155h209q-41 97 -60.5 173t-19.5 135q0 161 101 256.5t272 95.5q170 0 263 -94t93 -267v-30h-180q0 118 -44 177.5t-130 59.5q-81 0 -126.5 -45.5t-45.5 -126.5 q0 -53 20.5 -131.5t67.5 -202.5h258v-155h-205q10 -56 15.5 -104t5.5 -85q0 -48 -7 -92t-22 -88q69 -45 117.5 -65.5t87.5 -20.5q66 0 100.5 47.5t34.5 138.5v17l127 -1q-2 -204 -64.5 -303.5t-189.5 -99.5q-71 0 -137 30t-137 95q-56 -69 -110 -100t-118 -31 q-89 0 -149 60.5t-60 150.5zM135 184q0 -33 25.5 -55.5t62.5 -22.5t67 20.5t56 63.5q-36 35 -68 51.5t-63 16.5q-35 0 -57.5 -20.5t-22.5 -53.5z" />
<glyph unicode="&#xa4;" d="M0 532l23 113h87q-1 15 -1 26v38q0 28 2 71q1 12 2 19h-113l23 112h98q33 261 145.5 398t292.5 137q77 0 143.5 -39.5t106.5 -108.5v127h147v-401h-147q-20 112 -87.5 191t-148.5 79q-107 0 -172 -96t-88 -287h500l-39 -112l-469 -1q-1 -18 -1.5 -34t-0.5 -53v-66h420 l-37 -113h-375q21 -198 85 -294.5t175 -96.5q87 0 143 73t85 222l180 -57q-46 -201 -151.5 -304.5t-264.5 -103.5q-188 0 -301.5 143.5t-142.5 417.5h-119z" />
<glyph unicode="&#xa5;" horiz-adv-x="1141" d="M-90 1247v174h555v-178h-158l277 -434l284 434h-184v178h545v-174h-174l-154 -233h203v-113h-279l-100 -151h379v-115h-442v-451h186v-184h-563v184h186v451h-436v115h373l-101 151h-272v113h198l-151 233h-172z" />
<glyph unicode="&#xa6;" horiz-adv-x="1024" d="M438 -350v758h150v-758h-150zM438 674v758h150v-758h-150z" />
<glyph unicode="&#xa7;" horiz-adv-x="1042" d="M70 766q0 101 80 170.5t200 69.5h4q-36 42 -53.5 88.5t-17.5 99.5q0 117 77 173t238 56h242v-311h-123v203h-94q-104 0 -145.5 -29t-41.5 -98q0 -40 19.5 -77.5t70.5 -90.5l330 -344q58 -61 86.5 -117t28.5 -108q0 -99 -75.5 -167.5t-193.5 -74.5q48 -50 71.5 -103 t23.5 -114q0 -117 -77.5 -173.5t-238.5 -56.5h-268v312h125v-203h119q103 0 144.5 29t41.5 98q0 41 -21 80t-69 88l-369 373q-56 56 -85 114t-29 113zM240 780q0 -51 40.5 -113t141.5 -161q105 -104 167 -144t109 -40q46 0 78.5 32.5t32.5 77.5q0 51 -41.5 114t-142.5 163 q-105 103 -166 142.5t-109 39.5q-46 0 -78 -32.5t-32 -78.5z" />
<glyph unicode="&#xa8;" horiz-adv-x="1024" d="M207 1298q0 46 33.5 79.5t78.5 33.5q47 0 80 -33t33 -80q0 -48 -32.5 -81t-80.5 -33q-47 0 -79.5 33t-32.5 81zM590 1298q0 45 34.5 79t80.5 34q45 0 77.5 -33t32.5 -80q0 -49 -31.5 -81.5t-78.5 -32.5q-48 0 -81.5 33.5t-33.5 80.5z" />
<glyph unicode="&#xa9;" horiz-adv-x="1706" d="M117 727q0 147 56 281.5t163 242.5q104 104 236 158.5t280 54.5q152 0 285.5 -54.5t238.5 -160.5q104 -103 159.5 -238.5t55.5 -283.5q0 -149 -54.5 -281.5t-158.5 -234.5q-110 -107 -245.5 -164t-280.5 -57t-278.5 56t-239.5 163q-106 105 -161.5 238.5t-55.5 279.5z M213 727q0 -126 49 -242t141 -209q92 -91 207.5 -139.5t243.5 -48.5q125 0 242 49t213 142q90 88 137 202.5t47 245.5q0 130 -47.5 246.5t-136.5 206.5q-93 92 -209 140t-246 48q-129 0 -243.5 -47t-204.5 -137q-93 -93 -143 -211.5t-50 -245.5zM463 733q0 200 109 322.5 t286 122.5q142 0 236.5 -75t105.5 -196h-147q-13 77 -66 118.5t-139 41.5q-105 0 -165 -90.5t-60 -249.5q0 -157 62 -244.5t173 -87.5q82 0 136.5 47t68.5 129h145q-9 -130 -107.5 -211t-248.5 -81q-182 0 -285.5 120t-103.5 334z" />
<glyph unicode="&#xaa;" horiz-adv-x="788" d="M45 926q0 103 73.5 166t192.5 63q40 0 93 -12.5t120 -38.5v43q0 94 -38 138t-119 44q-58 0 -102 -21.5t-81 -68.5l-131 31q37 82 121 126t203 44q150 0 216 -67.5t66 -223.5v-303h113v-123h-244v65q-58 -44 -115.5 -65t-121.5 -21q-111 0 -178.5 62t-67.5 162zM193 930 q0 -43 34.5 -71t87.5 -28q45 0 96 21t117 66v51q-65 36 -107.5 49.5t-84.5 13.5q-64 0 -103.5 -28.5t-39.5 -73.5z" />
<glyph unicode="&#xab;" horiz-adv-x="901" d="M66 506l262 311h180l-258 -311l258 -313h-180zM397 506l262 311h181l-258 -311l258 -313h-181z" />
<glyph unicode="&#xac;" horiz-adv-x="1706" d="M254 721v139h1198v-502h-137v363h-1061z" />
<glyph unicode="&#xad;" horiz-adv-x="668" d="M86 422v176h498v-176h-498z" />
<glyph unicode="&#xae;" horiz-adv-x="1706" d="M117 727q0 146 57.5 282.5t165.5 245.5q101 103 231.5 156t280.5 53q151 0 286 -56t240 -163q103 -104 158 -238t55 -280q0 -151 -55 -283.5t-160 -234.5q-109 -106 -244.5 -162.5t-279.5 -56.5q-147 0 -280.5 56.5t-239.5 164.5q-105 106 -160 238.5t-55 277.5zM213 727 q0 -125 48.5 -240.5t139.5 -207.5q90 -92 206.5 -141.5t240.5 -49.5q130 0 246.5 48t212.5 140q90 88 138 202.5t48 242.5q0 134 -46.5 251t-135.5 206q-92 93 -208.5 141.5t-248.5 48.5q-130 0 -245 -47t-201 -135q-94 -95 -144.5 -214t-50.5 -245zM557 324v835h315 q174 0 261.5 -57.5t87.5 -171.5q0 -89 -50 -148t-141 -77l187 -381h-177l-170 356h-155v-356h-158zM715 780h133q113 0 162 31.5t49 101.5q0 76 -51 110t-164 34h-129v-277z" />
<glyph unicode="&#xaf;" horiz-adv-x="1024" d="M242 1229v139h540v-139h-540z" />
<glyph unicode="&#xb0;" horiz-adv-x="674" d="M49 1167q0 120 84.5 204.5t204.5 84.5q118 0 202.5 -84.5t84.5 -204.5q0 -119 -84 -202.5t-205 -83.5t-204 83t-83 203zM143 1169q0 -81 57 -138.5t138 -57.5t136.5 57.5t55.5 138.5t-55.5 137t-136.5 56t-138 -56t-57 -137z" />
<glyph unicode="&#xb1;" horiz-adv-x="1706" d="M254 29v141h1198v-141h-1198zM254 713v139h528v340h142v-340h528v-139h-528v-340h-142v340h-528z" />
<glyph unicode="&#xb2;" horiz-adv-x="670" d="M33 567v11q0 92 32.5 168.5t96.5 132.5q45 42 118.5 92t88.5 61q52 41 73 78.5t21 87.5q0 63 -38.5 101t-100.5 38q-80 0 -117 -55.5t-39 -177.5h-119v35q0 140 76 218.5t211 78.5q117 0 188.5 -65.5t71.5 -172.5q0 -48 -15.5 -89t-45.5 -77q-52 -58 -168 -129 q-41 -26 -60 -39q-69 -52 -103 -98t-38 -92h319v194h117v-301h-569z" />
<glyph unicode="&#xb3;" horiz-adv-x="670" d="M37 842v10h121v-4q0 -96 45 -150.5t123 -54.5q71 0 118.5 45t47.5 115q0 81 -55.5 123.5t-160.5 42.5q-6 0 -16 -1t-16 -1v100h22q96 0 146.5 37t50.5 106q0 61 -37.5 96t-101.5 35q-74 0 -109 -43t-35 -133v-4h-117v21q0 117 69.5 185.5t189.5 68.5q121 0 194.5 -61 t73.5 -161q0 -69 -37 -117.5t-111 -74.5q90 -29 131 -81t41 -136q0 -116 -80 -185t-215 -69q-132 0 -207 77t-75 214z" />
<glyph unicode="&#xb4;" horiz-adv-x="1024" d="M369 1135l204 348h201l-285 -348h-120z" />
<glyph unicode="&#xb5;" horiz-adv-x="1151" d="M-113 -428l318 1499h180l-129 -600q-7 -32 -10.5 -64.5t-3.5 -68.5q0 -99 52 -153t148 -54q132 0 208.5 92.5t123.5 311.5l115 536h178l-156 -732q-1 -6 -4 -20q-18 -87 -18 -112q0 -37 16.5 -52.5t55.5 -15.5q12 0 18.5 0.5t13.5 1.5l-31 -143q-24 -5 -50 -7.5t-58 -2.5 q-63 0 -97 29t-52 100q-45 -66 -112.5 -98.5t-158.5 -32.5q-82 0 -143 27.5t-113 88.5l-110 -530h-181z" />
<glyph unicode="&#xb6;" horiz-adv-x="1024" d="M66 1130q0 157 107.5 253t285.5 96h499v-86h-120v-1393h-111v1393h-176v-1393h-113v782q-170 8 -271 102.5t-101 245.5z" />
<glyph unicode="&#xb7;" horiz-adv-x="508" d="M123 707q0 52 39.5 91.5t91.5 39.5t90.5 -39.5t38.5 -91.5q0 -56 -37 -92.5t-92 -36.5q-56 0 -93.5 37t-37.5 92z" />
<glyph unicode="&#xb8;" horiz-adv-x="1024" d="M254 -326q76 -18 141.5 -28.5t106.5 -10.5q61 0 90 20t29 62q0 43 -31.5 64.5t-93.5 21.5q-21 0 -35 -0.5t-27 -0.5v198h78v-102h29q109 0 166 -46t57 -135q0 -91 -65 -139.5t-187 -48.5q-48 0 -114 11.5t-144 33.5v100z" />
<glyph unicode="&#xb9;" horiz-adv-x="670" d="M158 567v107h123v641h-123v104h248v-745h116v-107h-364z" />
<glyph unicode="&#xba;" horiz-adv-x="850" d="M49 1071q0 166 103.5 267.5t271.5 101.5q167 0 272 -102t105 -267q0 -164 -105 -266.5t-272 -102.5q-168 0 -271.5 101.5t-103.5 267.5zM199 1073q0 -112 60.5 -177t164.5 -65q106 0 165.5 64t59.5 178q0 113 -59.5 176.5t-165.5 63.5t-165.5 -63.5t-59.5 -176.5z" />
<glyph unicode="&#xbb;" horiz-adv-x="901" d="M61 193l258 313l-258 311h181l262 -311l-262 -313h-181zM393 193l258 313l-258 311h180l263 -311l-263 -313h-180z" />
<glyph unicode="&#xbc;" horiz-adv-x="1620" d="M150 623v98h116v600h-116v98h237v-698h111v-98h-348zM297 -29l887 1475h137l-887 -1475h-137zM999 313l351 496h110v-496h127v-88h-127v-127h88v-98h-295v98h101v127h-307q-4 28 -15 49t-33 39zM1106 313h248l6 363z" />
<glyph unicode="&#xbd;" horiz-adv-x="1620" d="M150 623v98h116v600h-116v98h237v-698h111v-98h-348zM297 -29l887 1475h137l-887 -1475h-137zM1012 0v10q0 86 31 157t92 124q43 39 113.5 86.5t82.5 56.5q51 38 70.5 72.5t19.5 83.5q0 59 -35.5 94t-95.5 35q-76 0 -112 -52.5t-38 -164.5h-112v30q0 132 72 204.5 t203 72.5q111 0 179 -60.5t68 -160.5q0 -44 -14.5 -82.5t-44.5 -71.5q-49 -52 -155 -118q-41 -26 -60 -40q-66 -46 -99.5 -90t-37.5 -87l305 -1v183h110v-281h-542z" />
<glyph unicode="&#xbe;" horiz-adv-x="1620" d="M37 879v8h115v-2q0 -90 42.5 -140.5t116.5 -50.5q69 0 113.5 41.5t44.5 106.5q0 76 -52.5 115.5t-152.5 39.5q-6 0 -16 -1t-15 -1v92h21q91 0 139.5 35t48.5 101q0 56 -35.5 89.5t-97.5 33.5q-69 0 -103 -40.5t-34 -123.5v-6h-111v20q0 110 66 173t180 63 q116 0 186 -56.5t70 -148.5q0 -65 -35 -110.5t-104 -69.5q85 -28 124.5 -76.5t39.5 -124.5q0 -108 -78 -174t-205 -66q-125 0 -196.5 72.5t-71.5 200.5zM297 -29l887 1475h137l-887 -1475h-137zM999 313l351 496h110v-496h127v-88h-127v-127h88v-98h-295v98h101v127h-307 q-4 28 -15 49t-33 39zM1106 313h248l6 363z" />
<glyph unicode="&#xbf;" horiz-adv-x="958" d="M86 346q0 169 101 273.5t284 123.5l18 271h113l23 -441q-27 9 -42.5 12t-27.5 3q-130 0 -203 -63.5t-73 -176.5q0 -96 62.5 -157.5t162.5 -61.5q104 0 163.5 68t59.5 188v23h184v-25q0 -190 -111 -301t-300 -111q-180 0 -297 107t-117 268zM432 1165v252h227v-252h-227z " />
<glyph unicode="&#xc0;" horiz-adv-x="1294" d="M-57 0v184h163l371 1063h-184v174h711v-174h-175l367 -1063h154v-184h-533v184h172l-110 320h-480l-108 -320h160v-184h-508zM385 1905h201l204 -348h-120zM461 676h356l-176 528z" />
<glyph unicode="&#xc1;" horiz-adv-x="1294" d="M-57 0v184h163l371 1063h-184v174h711v-174h-175l367 -1063h154v-184h-533v184h172l-110 320h-480l-108 -320h160v-184h-508zM461 676h356l-176 528zM504 1557l204 348h201l-285 -348h-120z" />
<glyph unicode="&#xc2;" horiz-adv-x="1294" d="M-57 0v184h163l371 1063h-184v174h711v-174h-175l367 -1063h154v-184h-533v184h172l-110 320h-480l-108 -320h160v-184h-508zM352 1557l197 348h196l197 -348h-123l-172 229l-174 -229h-121zM461 676h356l-176 528z" />
<glyph unicode="&#xc3;" horiz-adv-x="1294" d="M-57 0v184h163l371 1063h-184v174h711v-174h-175l367 -1063h154v-184h-533v184h172l-110 320h-480l-108 -320h160v-184h-508zM354 1604q18 99 68 151.5t125 52.5q14 0 29 -2.5t31 -7.5l97 -26q21 -6 33.5 -8.5t20.5 -2.5q33 0 56.5 18.5t37.5 55.5h88 q-20 -102 -70.5 -155.5t-126.5 -53.5q-13 0 -29.5 2.5t-36.5 8.5l-96 26q-13 4 -25.5 6t-23.5 2q-31 0 -53.5 -17t-36.5 -50h-88zM461 676h356l-176 528z" />
<glyph unicode="&#xc4;" horiz-adv-x="1294" d="M-57 0v184h163l371 1063h-184v174h711v-174h-175l367 -1063h154v-184h-533v184h172l-110 320h-480l-108 -320h160v-184h-508zM342 1720q0 46 33.5 79.5t78.5 33.5q47 0 80 -33t33 -80q0 -48 -32.5 -81t-80.5 -33q-47 0 -79.5 33t-32.5 81zM461 676h356l-176 528z M725 1720q0 45 34.5 79t80.5 34q45 0 77.5 -33t32.5 -80q0 -49 -31.5 -81.5t-78.5 -32.5q-48 0 -81.5 33.5t-33.5 80.5z" />
<glyph unicode="&#xc5;" horiz-adv-x="1294" d="M-57 0v184h163l371 1063h-184v174h711v-174h-175l367 -1063h154v-184h-533v184h172l-110 320h-480l-108 -320h160v-184h-508zM406 1731q0 101 70 171t171 70q102 0 173 -70t71 -171q0 -102 -71 -173t-173 -71q-101 0 -171 71t-70 173zM461 676h356l-176 528zM524 1731 q0 -51 37.5 -88t87.5 -37q51 0 87 37t36 88q0 50 -36 86t-87 36t-88 -36t-37 -86z" />
<glyph unicode="&#xc6;" horiz-adv-x="1939" d="M-92 0v184h160l569 1063h-201v174h1403v-422h-170v248h-534v-430h467v-170h-467v-463h534v271h170v-455h-1126v184h219v463h-414l-246 -463h156v-184h-520zM610 817h322v445h-88z" />
<glyph unicode="&#xc7;" horiz-adv-x="1540" d="M70 709q0 323 200.5 530t511.5 207q158 0 267.5 -49.5t191.5 -157.5v182h174v-456h-188q-63 145 -171 218.5t-259 73.5q-227 0 -367.5 -150.5t-140.5 -395.5q0 -244 138 -396.5t353 -152.5q172 0 309.5 111.5t196.5 299.5l176 -104q-70 -233 -251 -365.5t-429 -132.5 q-313 0 -512.5 206.5t-199.5 531.5zM512 -326q76 -18 141.5 -28.5t106.5 -10.5q61 0 90 20t29 62q0 43 -31.5 64.5t-93.5 21.5q-21 0 -35 -0.5t-27 -0.5v198h78v-102h29q109 0 166 -46t57 -135q0 -91 -65 -139.5t-187 -48.5q-48 0 -114 11.5t-144 33.5v100z" />
<glyph unicode="&#xc8;" horiz-adv-x="1300" d="M41 0v184h168v1063h-168v174h1161v-422h-172v248h-618v-432h553v-170h-553v-461h618v271h172v-455h-1161zM406 1905h201l204 -348h-120z" />
<glyph unicode="&#xc9;" horiz-adv-x="1300" d="M41 0v184h168v1063h-168v174h1161v-422h-172v248h-618v-432h553v-170h-553v-461h618v271h172v-455h-1161zM525 1557l204 348h201l-285 -348h-120z" />
<glyph unicode="&#xca;" horiz-adv-x="1300" d="M41 0v184h168v1063h-168v174h1161v-422h-172v248h-618v-432h553v-170h-553v-461h618v271h172v-455h-1161zM373 1557l197 348h196l197 -348h-123l-172 229l-174 -229h-121z" />
<glyph unicode="&#xcb;" horiz-adv-x="1300" d="M41 0v184h168v1063h-168v174h1161v-422h-172v248h-618v-432h553v-170h-553v-461h618v271h172v-455h-1161zM363 1720q0 46 33.5 79.5t78.5 33.5q47 0 80 -33t33 -80q0 -48 -32.5 -81t-80.5 -33q-47 0 -79.5 33t-32.5 81zM746 1720q0 45 34.5 79t80.5 34q45 0 77.5 -33 t32.5 -80q0 -49 -31.5 -81.5t-78.5 -32.5q-48 0 -81.5 33.5t-33.5 80.5z" />
<glyph unicode="&#xcc;" horiz-adv-x="621" d="M41 0v184h168v1063h-168v174h541v-174h-170v-1063h170v-184h-541zM49 1905h201l204 -348h-120z" />
<glyph unicode="&#xcd;" horiz-adv-x="621" d="M41 0v184h168v1063h-168v174h541v-174h-170v-1063h170v-184h-541zM168 1557l204 348h201l-285 -348h-120z" />
<glyph unicode="&#xce;" horiz-adv-x="621" d="M16 1557l197 348h196l197 -348h-123l-172 229l-174 -229h-121zM41 0v184h168v1063h-168v174h541v-174h-170v-1063h170v-184h-541z" />
<glyph unicode="&#xcf;" horiz-adv-x="621" d="M6 1720q0 46 33.5 79.5t78.5 33.5q47 0 80 -33t33 -80q0 -48 -32.5 -81t-80.5 -33q-47 0 -79.5 33t-32.5 81zM41 0v184h168v1063h-168v174h541v-174h-170v-1063h170v-184h-541zM389 1720q0 45 34.5 79t80.5 34q45 0 77.5 -33t32.5 -80q0 -49 -31.5 -81.5t-78.5 -32.5 q-48 0 -81.5 33.5t-33.5 80.5z" />
<glyph unicode="&#xd0;" horiz-adv-x="1473" d="M0 684v156h215v407h-172v174h655q334 0 518.5 -186.5t184.5 -523.5q0 -338 -184.5 -524.5t-518.5 -186.5h-655v184h172v500h-215zM420 186h260q245 0 370.5 134.5t125.5 396.5q0 254 -121.5 392t-345.5 138h-289v-407h334v-156h-334v-498z" />
<glyph unicode="&#xd1;" horiz-adv-x="1524" d="M35 0v184h174v1063h-174v174h452l643 -1108v934h-174v174h562v-174h-205v-1247h-232l-690 1192v-1008h174v-184h-530zM473 1604q18 99 68 151.5t125 52.5q14 0 29 -2.5t31 -7.5l97 -26q21 -6 33.5 -8.5t20.5 -2.5q33 0 56.5 18.5t37.5 55.5h88q-20 -102 -70.5 -155.5 t-126.5 -53.5q-13 0 -29.5 2.5t-36.5 8.5l-96 26q-13 4 -25.5 6t-23.5 2q-31 0 -53.5 -17t-36.5 -50h-88z" />
<glyph unicode="&#xd2;" horiz-adv-x="1565" d="M70 709q0 322 201 529.5t511 207.5q315 0 513 -206t198 -531t-199 -531.5t-512 -206.5t-512.5 206.5t-199.5 531.5zM289 711q0 -244 138 -396.5t353 -152.5q216 0 355 153t139 396q0 241 -138.5 392.5t-355.5 151.5q-213 0 -352 -152t-139 -392zM520 1905h201l204 -348 h-120z" />
<glyph unicode="&#xd3;" horiz-adv-x="1565" d="M70 709q0 322 201 529.5t511 207.5q315 0 513 -206t198 -531t-199 -531.5t-512 -206.5t-512.5 206.5t-199.5 531.5zM289 711q0 -244 138 -396.5t353 -152.5q216 0 355 153t139 396q0 241 -138.5 392.5t-355.5 151.5q-213 0 -352 -152t-139 -392zM639 1557l204 348h201 l-285 -348h-120z" />
<glyph unicode="&#xd4;" horiz-adv-x="1565" d="M70 709q0 322 201 529.5t511 207.5q315 0 513 -206t198 -531t-199 -531.5t-512 -206.5t-512.5 206.5t-199.5 531.5zM289 711q0 -244 138 -396.5t353 -152.5q216 0 355 153t139 396q0 241 -138.5 392.5t-355.5 151.5q-213 0 -352 -152t-139 -392zM487 1557l197 348h196 l197 -348h-123l-172 229l-174 -229h-121z" />
<glyph unicode="&#xd5;" horiz-adv-x="1565" d="M70 709q0 322 201 529.5t511 207.5q315 0 513 -206t198 -531t-199 -531.5t-512 -206.5t-512.5 206.5t-199.5 531.5zM289 711q0 -244 138 -396.5t353 -152.5q216 0 355 153t139 396q0 241 -138.5 392.5t-355.5 151.5q-213 0 -352 -152t-139 -392zM489 1604q18 99 68 151.5 t125 52.5q14 0 29 -2.5t31 -7.5l97 -26q21 -6 33.5 -8.5t20.5 -2.5q33 0 56.5 18.5t37.5 55.5h88q-20 -102 -70.5 -155.5t-126.5 -53.5q-13 0 -29.5 2.5t-36.5 8.5l-96 26q-13 4 -25.5 6t-23.5 2q-31 0 -53.5 -17t-36.5 -50h-88z" />
<glyph unicode="&#xd6;" horiz-adv-x="1565" d="M70 709q0 322 201 529.5t511 207.5q315 0 513 -206t198 -531t-199 -531.5t-512 -206.5t-512.5 206.5t-199.5 531.5zM289 711q0 -244 138 -396.5t353 -152.5q216 0 355 153t139 396q0 241 -138.5 392.5t-355.5 151.5q-213 0 -352 -152t-139 -392zM477 1720q0 46 33.5 79.5 t78.5 33.5q47 0 80 -33t33 -80q0 -48 -32.5 -81t-80.5 -33q-47 0 -79.5 33t-32.5 81zM860 1720q0 45 34.5 79t80.5 34q45 0 77.5 -33t32.5 -80q0 -49 -31.5 -81.5t-78.5 -32.5q-48 0 -81.5 33.5t-33.5 80.5z" />
<glyph unicode="&#xd7;" horiz-adv-x="1706" d="M293 141l469 469l-469 469l98 99l469 -469l469 469l98 -99l-469 -469l469 -469l-98 -96l-469 467l-469 -467z" />
<glyph unicode="&#xd8;" horiz-adv-x="1565" d="M70 709q0 325 202 531t521 206q122 0 223.5 -31t183.5 -94l133 152l109 -97l-135 -151q95 -111 140.5 -236.5t45.5 -279.5q0 -325 -199 -531.5t-512 -206.5q-134 0 -243.5 37t-202.5 113l-143 -166l-115 102l151 172q-82 102 -120.5 218.5t-38.5 261.5zM289 711 q0 -107 20.5 -184.5t65.5 -139.5l688 780q-66 45 -136 66.5t-147 21.5q-213 0 -352 -152t-139 -392zM473 276q65 -58 141 -86t166 -28q215 0 354.5 153t139.5 396q0 108 -26 193.5t-81 158.5z" />
<glyph unicode="&#xd9;" horiz-adv-x="1477" d="M25 1247v174h557v-174h-172v-760q0 -168 73 -248.5t228 -80.5q157 0 233 80.5t76 248.5v760h-174v174h543v-174h-172v-659q0 -334 -118.5 -475.5t-391.5 -141.5q-272 0 -390 141t-118 476v659h-174zM477 1905h201l204 -348h-120z" />
<glyph unicode="&#xda;" horiz-adv-x="1477" d="M25 1247v174h557v-174h-172v-760q0 -168 73 -248.5t228 -80.5q157 0 233 80.5t76 248.5v760h-174v174h543v-174h-172v-659q0 -334 -118.5 -475.5t-391.5 -141.5q-272 0 -390 141t-118 476v659h-174zM596 1557l204 348h201l-285 -348h-120z" />
<glyph unicode="&#xdb;" horiz-adv-x="1477" d="M25 1247v174h557v-174h-172v-760q0 -168 73 -248.5t228 -80.5q157 0 233 80.5t76 248.5v760h-174v174h543v-174h-172v-659q0 -334 -118.5 -475.5t-391.5 -141.5q-272 0 -390 141t-118 476v659h-174zM444 1557l197 348h196l197 -348h-123l-172 229l-174 -229h-121z" />
<glyph unicode="&#xdc;" horiz-adv-x="1477" d="M25 1247v174h557v-174h-172v-760q0 -168 73 -248.5t228 -80.5q157 0 233 80.5t76 248.5v760h-174v174h543v-174h-172v-659q0 -334 -118.5 -475.5t-391.5 -141.5q-272 0 -390 141t-118 476v659h-174zM434 1720q0 46 33.5 79.5t78.5 33.5q47 0 80 -33t33 -80 q0 -48 -32.5 -81t-80.5 -33q-47 0 -79.5 33t-32.5 81zM817 1720q0 45 34.5 79t80.5 34q45 0 77.5 -33t32.5 -80q0 -49 -31.5 -81.5t-78.5 -32.5q-48 0 -81.5 33.5t-33.5 80.5z" />
<glyph unicode="&#xdd;" horiz-adv-x="1110" d="M-113 1247v174h566v-174h-154l268 -422l277 422h-178v174h555v-174h-174l-394 -596v-467h185v-184h-576v184h187v467l-390 596h-172zM412 1557l204 348h201l-285 -348h-120z" />
<glyph unicode="&#xde;" horiz-adv-x="1231" d="M41 0v184h168v1063h-168v174h541v-174h-170v-106h200q277 0 411 -102t134 -312q0 -209 -135.5 -313.5t-409.5 -104.5h-200v-125h170v-184h-541zM412 479h170q186 0 272 58.5t86 185.5q0 125 -86.5 183.5t-271.5 58.5h-170v-486z" />
<glyph unicode="&#xdf;" horiz-adv-x="1102" d="M10 0v176h152v873q0 206 86 301.5t270 95.5q158 0 254 -84.5t96 -222.5q0 -87 -46.5 -144t-143.5 -90q160 -11 252 -126t92 -306q0 -212 -112.5 -347.5t-286.5 -135.5q-13 0 -51 2q-17 1 -27 2v180h28q125 0 187.5 75.5t62.5 225.5q0 152 -77 227.5t-234 75.5h-31v172 q102 5 155.5 49t53.5 123q0 76 -47.5 120t-130.5 44q-90 0 -129 -56.5t-39 -193.5v-860h111v-176h-445z" />
<glyph unicode="&#xe0;" horiz-adv-x="1051" d="M59 289q0 147 97.5 237t257.5 90q55 0 125.5 -17.5t158.5 -53.5v59q0 136 -51 199t-160 63q-77 0 -135 -31t-106 -98l-174 45q48 116 159.5 179t270.5 63q200 0 288.5 -96t88.5 -320v-432h151v-176h-325v94q-78 -63 -155 -93t-163 -30q-147 0 -237.5 88t-90.5 230z M225 1483h201l204 -348h-120zM256 295q0 -60 46 -99.5t118 -39.5q60 0 129.5 30t155.5 93v73q-84 50 -142 70t-114 20q-87 0 -140 -40.5t-53 -106.5z" />
<glyph unicode="&#xe1;" horiz-adv-x="1051" d="M59 289q0 147 97.5 237t257.5 90q55 0 125.5 -17.5t158.5 -53.5v59q0 136 -51 199t-160 63q-77 0 -135 -31t-106 -98l-174 45q48 116 159.5 179t270.5 63q200 0 288.5 -96t88.5 -320v-432h151v-176h-325v94q-78 -63 -155 -93t-163 -30q-147 0 -237.5 88t-90.5 230z M256 295q0 -60 46 -99.5t118 -39.5q60 0 129.5 30t155.5 93v73q-84 50 -142 70t-114 20q-87 0 -140 -40.5t-53 -106.5zM344 1135l204 348h201l-285 -348h-120z" />
<glyph unicode="&#xe2;" horiz-adv-x="1051" d="M59 289q0 147 97.5 237t257.5 90q55 0 125.5 -17.5t158.5 -53.5v59q0 136 -51 199t-160 63q-77 0 -135 -31t-106 -98l-174 45q48 116 159.5 179t270.5 63q200 0 288.5 -96t88.5 -320v-432h151v-176h-325v94q-78 -63 -155 -93t-163 -30q-147 0 -237.5 88t-90.5 230z M192 1135l197 348h196l197 -348h-123l-172 229l-174 -229h-121zM256 295q0 -60 46 -99.5t118 -39.5q60 0 129.5 30t155.5 93v73q-84 50 -142 70t-114 20q-87 0 -140 -40.5t-53 -106.5z" />
<glyph unicode="&#xe3;" horiz-adv-x="1051" d="M59 289q0 147 97.5 237t257.5 90q55 0 125.5 -17.5t158.5 -53.5v59q0 136 -51 199t-160 63q-77 0 -135 -31t-106 -98l-174 45q48 116 159.5 179t270.5 63q200 0 288.5 -96t88.5 -320v-432h151v-176h-325v94q-78 -63 -155 -93t-163 -30q-147 0 -237.5 88t-90.5 230z M194 1182q18 99 68 151.5t125 52.5q14 0 29 -2.5t31 -7.5l97 -26q21 -6 33.5 -8.5t20.5 -2.5q33 0 56.5 18.5t37.5 55.5h88q-20 -102 -70.5 -155.5t-126.5 -53.5q-13 0 -29.5 2.5t-36.5 8.5l-96 26q-13 4 -25.5 6t-23.5 2q-31 0 -53.5 -17t-36.5 -50h-88zM256 295 q0 -60 46 -99.5t118 -39.5q60 0 129.5 30t155.5 93v73q-84 50 -142 70t-114 20q-87 0 -140 -40.5t-53 -106.5z" />
<glyph unicode="&#xe4;" horiz-adv-x="1051" d="M59 289q0 147 97.5 237t257.5 90q55 0 125.5 -17.5t158.5 -53.5v59q0 136 -51 199t-160 63q-77 0 -135 -31t-106 -98l-174 45q48 116 159.5 179t270.5 63q200 0 288.5 -96t88.5 -320v-432h151v-176h-325v94q-78 -63 -155 -93t-163 -30q-147 0 -237.5 88t-90.5 230z M182 1298q0 46 33.5 79.5t78.5 33.5q47 0 80 -33t33 -80q0 -48 -32.5 -81t-80.5 -33q-47 0 -79.5 33t-32.5 81zM256 295q0 -60 46 -99.5t118 -39.5q60 0 129.5 30t155.5 93v73q-84 50 -142 70t-114 20q-87 0 -140 -40.5t-53 -106.5zM565 1298q0 45 34.5 79t80.5 34 q45 0 77.5 -33t32.5 -80q0 -49 -31.5 -81.5t-78.5 -32.5q-48 0 -81.5 33.5t-33.5 80.5z" />
<glyph unicode="&#xe5;" horiz-adv-x="1051" d="M59 289q0 147 97.5 237t257.5 90q55 0 125.5 -17.5t158.5 -53.5v59q0 136 -51 199t-160 63q-77 0 -135 -31t-106 -98l-174 45q48 116 159.5 179t270.5 63q200 0 288.5 -96t88.5 -320v-432h151v-176h-325v94q-78 -63 -155 -93t-163 -30q-147 0 -237.5 88t-90.5 230z M248 1335q0 102 70 172t171 70q102 0 172 -70t70 -172q0 -101 -70.5 -172t-171.5 -71q-100 0 -170.5 71t-70.5 172zM256 295q0 -60 46 -99.5t118 -39.5q60 0 129.5 30t155.5 93v73q-84 50 -142 70t-114 20q-87 0 -140 -40.5t-53 -106.5zM367 1335q0 -51 36 -88t86 -37 q51 0 88 37.5t37 87.5q0 51 -37 87t-88 36q-50 0 -86 -36t-36 -87z" />
<glyph unicode="&#xe6;" horiz-adv-x="1698" d="M66 289q0 147 97 237t257 90q55 0 125.5 -17.5t159.5 -53.5v59q0 136 -51 199t-160 63q-77 0 -135.5 -31t-106.5 -98l-172 45q47 115 158.5 178.5t267.5 63.5q117 0 199.5 -37t125.5 -108q69 71 155 108t183 37q217 0 337 -151.5t120 -426.5h-737q0 -129 81 -208.5 t212 -79.5q94 0 171 45t128 129l149 -82q-75 -141 -188.5 -210t-272.5 -69q-120 0 -217 51t-166 150q-84 -102 -180.5 -151.5t-210.5 -49.5q-147 0 -238 88t-91 230zM264 295q0 -61 46.5 -99t121.5 -38q77 0 146.5 29.5t132.5 88.5v76q-89 53 -145 71.5t-111 18.5 q-86 0 -138.5 -40.5t-52.5 -106.5zM897 594h530q-13 128 -81.5 196t-184.5 68t-185.5 -70t-78.5 -194z" />
<glyph unicode="&#xe7;" horiz-adv-x="1096" d="M66 498q0 230 136.5 378t346.5 148q86 0 157.5 -27.5t137.5 -85.5v88h160v-372h-160q-28 109 -96 166t-170 57q-144 0 -227 -93.5t-83 -256.5q0 -160 82.5 -252t224.5 -92q101 0 183.5 52t132.5 148l158 -77q-58 -143 -185 -225.5t-289 -82.5q-227 0 -368 145t-141 382z M291 -326q76 -18 141.5 -28.5t106.5 -10.5q61 0 90 20t29 62q0 43 -31.5 64.5t-93.5 21.5q-21 0 -35 -0.5t-27 -0.5v198h78v-102h29q109 0 166 -46t57 -135q0 -91 -65 -139.5t-187 -48.5q-48 0 -114 11.5t-144 33.5v100z" />
<glyph unicode="&#xe8;" horiz-adv-x="1120" d="M66 498q0 237 138 381.5t361 144.5q231 0 358.5 -151.5t127.5 -426.5h-785q4 -131 89.5 -210.5t224.5 -79.5q97 0 181 46t136 130l158 -82q-77 -137 -198 -208t-279 -71q-234 0 -373 143.5t-139 383.5zM283 594h567q-15 128 -88 196t-197 68q-123 0 -197.5 -69.5 t-84.5 -194.5zM313 1483h201l204 -348h-120z" />
<glyph unicode="&#xe9;" horiz-adv-x="1120" d="M66 498q0 237 138 381.5t361 144.5q231 0 358.5 -151.5t127.5 -426.5h-785q4 -131 89.5 -210.5t224.5 -79.5q97 0 181 46t136 130l158 -82q-77 -137 -198 -208t-279 -71q-234 0 -373 143.5t-139 383.5zM283 594h567q-15 128 -88 196t-197 68q-123 0 -197.5 -69.5 t-84.5 -194.5zM432 1135l204 348h201l-285 -348h-120z" />
<glyph unicode="&#xea;" horiz-adv-x="1120" d="M66 498q0 237 138 381.5t361 144.5q231 0 358.5 -151.5t127.5 -426.5h-785q4 -131 89.5 -210.5t224.5 -79.5q97 0 181 46t136 130l158 -82q-77 -137 -198 -208t-279 -71q-234 0 -373 143.5t-139 383.5zM280 1135l197 348h196l197 -348h-123l-172 229l-174 -229h-121z M283 594h567q-15 128 -88 196t-197 68q-123 0 -197.5 -69.5t-84.5 -194.5z" />
<glyph unicode="&#xeb;" horiz-adv-x="1120" d="M66 498q0 237 138 381.5t361 144.5q231 0 358.5 -151.5t127.5 -426.5h-785q4 -131 89.5 -210.5t224.5 -79.5q97 0 181 46t136 130l158 -82q-77 -137 -198 -208t-279 -71q-234 0 -373 143.5t-139 383.5zM270 1298q0 46 33.5 79.5t78.5 33.5q47 0 80 -33t33 -80 q0 -48 -32.5 -81t-80.5 -33q-47 0 -79.5 33t-32.5 81zM283 594h567q-15 128 -88 196t-197 68q-123 0 -197.5 -69.5t-84.5 -194.5zM653 1298q0 45 34.5 79t80.5 34q45 0 77.5 -33t32.5 -80q0 -49 -31.5 -81.5t-78.5 -32.5q-48 0 -81.5 33.5t-33.5 80.5z" />
<glyph unicode="&#xec;" horiz-adv-x="537" d="M-20 1483h201l204 -348h-120zM39 0v176h141v658h-141v165h321v-823h148v-176h-469z" />
<glyph unicode="&#xed;" horiz-adv-x="537" d="M39 0v176h141v658h-141v165h321v-823h148v-176h-469zM99 1135l204 348h201l-285 -348h-120z" />
<glyph unicode="&#xee;" horiz-adv-x="537" d="M-53 1135l197 348h196l197 -348h-123l-172 229l-174 -229h-121zM39 0v176h141v658h-141v165h321v-823h148v-176h-469z" />
<glyph unicode="&#xef;" horiz-adv-x="537" d="M-63 1298q0 46 33.5 79.5t78.5 33.5q47 0 80 -33t33 -80q0 -48 -32.5 -81t-80.5 -33q-47 0 -79.5 33t-32.5 81zM39 0v176h141v658h-141v165h321v-823h148v-176h-469zM320 1298q0 45 34.5 79t80.5 34q45 0 77.5 -33t32.5 -80q0 -49 -31.5 -81.5t-78.5 -32.5 q-48 0 -81.5 33.5t-33.5 80.5z" />
<glyph unicode="&#xf0;" horiz-adv-x="1133" d="M66 475q0 221 133 360.5t342 139.5q34 0 67 -6t68 -19l-92 150l-342 -109l-27 94l315 101l-55 94h-168v141h281l108 -180l303 98l31 -96l-280 -90l133 -211q107 -167 145.5 -272t38.5 -209q0 -214 -141 -352t-361 -138q-223 0 -361 139t-138 365zM264 477 q0 -149 81.5 -235t219.5 -86q139 0 220 86t81 235q0 151 -80.5 237.5t-220.5 86.5t-220.5 -86.5t-80.5 -237.5z" />
<glyph unicode="&#xf1;" horiz-adv-x="1110" d="M39 0v176h141v658h-141v165h313v-153q100 81 182.5 118t163.5 37q131 0 185.5 -73.5t54.5 -284.5v-467h147v-176h-327v569q0 178 -27.5 224.5t-99.5 46.5q-65 0 -130.5 -37t-140.5 -117v-510h148v-176h-469zM262 1182q18 99 68 151.5t125 52.5q14 0 29 -2.5t31 -7.5 l97 -26q21 -6 33.5 -8.5t20.5 -2.5q33 0 56.5 18.5t37.5 55.5h88q-20 -102 -70.5 -155.5t-126.5 -53.5q-13 0 -29.5 2.5t-36.5 8.5l-96 26q-13 4 -25.5 6t-23.5 2q-31 0 -53.5 -17t-36.5 -50h-88z" />
<glyph unicode="&#xf2;" horiz-adv-x="1133" d="M66 498q0 237 138 381.5t361 144.5q224 0 363 -145.5t139 -380.5q0 -236 -139 -381.5t-363 -145.5q-223 0 -361 145t-138 382zM264 500q0 -160 81 -252t220 -92q141 0 221 91t80 253t-79.5 253t-221.5 91q-140 0 -220.5 -91.5t-80.5 -252.5zM305 1483h201l204 -348h-120z " />
<glyph unicode="&#xf3;" horiz-adv-x="1133" d="M66 498q0 237 138 381.5t361 144.5q224 0 363 -145.5t139 -380.5q0 -236 -139 -381.5t-363 -145.5q-223 0 -361 145t-138 382zM264 500q0 -160 81 -252t220 -92q141 0 221 91t80 253t-79.5 253t-221.5 91q-140 0 -220.5 -91.5t-80.5 -252.5zM424 1135l204 348h201 l-285 -348h-120z" />
<glyph unicode="&#xf4;" horiz-adv-x="1133" d="M66 498q0 237 138 381.5t361 144.5q224 0 363 -145.5t139 -380.5q0 -236 -139 -381.5t-363 -145.5q-223 0 -361 145t-138 382zM264 500q0 -160 81 -252t220 -92q141 0 221 91t80 253t-79.5 253t-221.5 91q-140 0 -220.5 -91.5t-80.5 -252.5zM272 1135l197 348h196 l197 -348h-123l-172 229l-174 -229h-121z" />
<glyph unicode="&#xf5;" horiz-adv-x="1133" d="M66 498q0 237 138 381.5t361 144.5q224 0 363 -145.5t139 -380.5q0 -236 -139 -381.5t-363 -145.5q-223 0 -361 145t-138 382zM264 500q0 -160 81 -252t220 -92q141 0 221 91t80 253t-79.5 253t-221.5 91q-140 0 -220.5 -91.5t-80.5 -252.5zM274 1182q18 99 68 151.5 t125 52.5q14 0 29 -2.5t31 -7.5l97 -26q21 -6 33.5 -8.5t20.5 -2.5q33 0 56.5 18.5t37.5 55.5h88q-20 -102 -70.5 -155.5t-126.5 -53.5q-13 0 -29.5 2.5t-36.5 8.5l-96 26q-13 4 -25.5 6t-23.5 2q-31 0 -53.5 -17t-36.5 -50h-88z" />
<glyph unicode="&#xf6;" horiz-adv-x="1133" d="M66 498q0 237 138 381.5t361 144.5q224 0 363 -145.5t139 -380.5q0 -236 -139 -381.5t-363 -145.5q-223 0 -361 145t-138 382zM262 1298q0 46 33.5 79.5t78.5 33.5q47 0 80 -33t33 -80q0 -48 -32.5 -81t-80.5 -33q-47 0 -79.5 33t-32.5 81zM264 500q0 -160 81 -252 t220 -92q141 0 221 91t80 253t-79.5 253t-221.5 91q-140 0 -220.5 -91.5t-80.5 -252.5zM645 1298q0 45 34.5 79t80.5 34q45 0 77.5 -33t32.5 -80q0 -49 -31.5 -81.5t-78.5 -32.5q-48 0 -81.5 33.5t-33.5 80.5z" />
<glyph unicode="&#xf7;" horiz-adv-x="1706" d="M254 541v139h1198v-139h-1198zM729 242q0 51 37 88t88 37t88 -37t37 -88q0 -52 -36.5 -88.5t-88.5 -36.5q-53 0 -89 36t-36 89zM729 979q0 52 37 89.5t88 37.5t88 -37.5t37 -89.5q0 -51 -36.5 -88t-88.5 -37t-88.5 36.5t-36.5 88.5z" />
<glyph unicode="&#xf8;" horiz-adv-x="1133" d="M16 59l134 127q-43 67 -63.5 143.5t-20.5 168.5q0 236 138 381t361 145q99 0 179.5 -28.5t152.5 -88.5l117 115l80 -82l-119 -117q46 -67 69 -148t23 -177q0 -237 -138.5 -382t-363.5 -145q-100 0 -183 31t-159 96l-135 -129zM264 500q0 -47 8 -91t23 -83l467 452 q-41 34 -88.5 50t-108.5 16q-140 0 -220.5 -91.5t-80.5 -252.5zM362 231q48 -39 96.5 -57t106.5 -18q141 0 222 91.5t81 252.5q0 60 -8.5 103.5t-28.5 80.5z" />
<glyph unicode="&#xf9;" horiz-adv-x="1104" d="M23 834v165h327v-618q0 -156 28.5 -202t100.5 -46q65 0 130.5 37t140.5 117v547h-154v165h332v-823h143v-176h-315v127q-101 -82 -182.5 -119t-161.5 -37q-132 0 -187 74.5t-55 284.5v504h-147zM264 1483h201l204 -348h-120z" />
<glyph unicode="&#xfa;" horiz-adv-x="1104" d="M23 834v165h327v-618q0 -156 28.5 -202t100.5 -46q65 0 130.5 37t140.5 117v547h-154v165h332v-823h143v-176h-315v127q-101 -82 -182.5 -119t-161.5 -37q-132 0 -187 74.5t-55 284.5v504h-147zM383 1135l204 348h201l-285 -348h-120z" />
<glyph unicode="&#xfb;" horiz-adv-x="1104" d="M23 834v165h327v-618q0 -156 28.5 -202t100.5 -46q65 0 130.5 37t140.5 117v547h-154v165h332v-823h143v-176h-315v127q-101 -82 -182.5 -119t-161.5 -37q-132 0 -187 74.5t-55 284.5v504h-147zM231 1135l197 348h196l197 -348h-123l-172 229l-174 -229h-121z" />
<glyph unicode="&#xfc;" horiz-adv-x="1104" d="M23 834v165h327v-618q0 -156 28.5 -202t100.5 -46q65 0 130.5 37t140.5 117v547h-154v165h332v-823h143v-176h-315v127q-101 -82 -182.5 -119t-161.5 -37q-132 0 -187 74.5t-55 284.5v504h-147zM221 1298q0 46 33.5 79.5t78.5 33.5q47 0 80 -33t33 -80q0 -48 -32.5 -81 t-80.5 -33q-47 0 -79.5 33t-32.5 81zM604 1298q0 45 34.5 79t80.5 34q45 0 77.5 -33t32.5 -80q0 -49 -31.5 -81.5t-78.5 -32.5q-48 0 -81.5 33.5t-33.5 80.5z" />
<glyph unicode="&#xfd;" horiz-adv-x="1006" d="M-10 834v165h420v-165h-115l221 -558l215 558h-117v165h400v-165h-117l-448 -1166h-340v166h237l76 197l-320 803h-112zM361 1135l204 348h201l-285 -348h-120z" />
<glyph unicode="&#xfe;" horiz-adv-x="1208" d="M31 -158h143v1413h-143v166h325v-567q84 78 164 112.5t170 34.5q201 0 325 -141.5t124 -374.5q0 -232 -123.5 -373t-325.5 -141q-92 0 -171.5 35t-162.5 113v-277h191v-174h-516v174zM356 489q0 -154 81.5 -246.5t211.5 -92.5q138 0 217.5 90.5t79.5 248.5 q0 159 -79.5 249.5t-217.5 90.5q-136 0 -214.5 -90t-78.5 -250z" />
<glyph unicode="&#xff;" horiz-adv-x="1006" d="M-10 834v165h420v-165h-115l221 -558l215 558h-117v165h400v-165h-117l-448 -1166h-340v166h237l76 197l-320 803h-112zM199 1298q0 46 33.5 79.5t78.5 33.5q47 0 80 -33t33 -80q0 -48 -32.5 -81t-80.5 -33q-47 0 -79.5 33t-32.5 81zM582 1298q0 45 34.5 79t80.5 34 q45 0 77.5 -33t32.5 -80q0 -49 -31.5 -81.5t-78.5 -32.5q-48 0 -81.5 33.5t-33.5 80.5z" />
<glyph unicode="&#x152;" horiz-adv-x="2068" d="M82 711q0 211 84.5 371.5t245.5 252.5q80 46 191.5 66t328.5 20h1048v-422h-170v248h-573v-432h506v-170h-506v-461h573v271h170v-455h-1048q-213 0 -329 19t-193 63q-154 85 -241 252t-87 377zM299 717q0 -162 58.5 -281t172.5 -188q62 -38 145.5 -54t256.5 -16h102 v1075h-102q-170 0 -252.5 -16.5t-147.5 -54.5q-115 -70 -174 -187t-59 -278z" />
<glyph unicode="&#x153;" horiz-adv-x="1901" d="M76 498q0 237 135.5 381.5t357.5 144.5q129 0 226 -47t170 -143q67 95 165 142.5t226 47.5q225 0 350 -151.5t125 -426.5h-770q3 -130 87.5 -210t219.5 -80q96 0 178 46t133 130l154 -82q-75 -140 -194 -209.5t-283 -69.5q-122 0 -217.5 45.5t-173.5 141.5 q-69 -91 -171 -139t-225 -48q-221 0 -357 145t-136 382zM272 500q0 -160 80 -252t217 -92q140 0 219.5 91.5t79.5 252.5t-79 252.5t-220 91.5q-139 0 -218 -91.5t-79 -252.5zM1080 594h548q-14 128 -84.5 196t-189.5 68q-120 0 -192.5 -69.5t-81.5 -194.5z" />
<glyph unicode="&#x178;" horiz-adv-x="1110" d="M-113 1247v174h566v-174h-154l268 -422l277 422h-178v174h555v-174h-174l-394 -596v-467h185v-184h-576v184h187v467l-390 596h-172zM250 1720q0 46 33.5 79.5t78.5 33.5q47 0 80 -33t33 -80q0 -48 -32.5 -81t-80.5 -33q-47 0 -79.5 33t-32.5 81zM633 1720q0 45 34.5 79 t80.5 34q45 0 77.5 -33t32.5 -80q0 -49 -31.5 -81.5t-78.5 -32.5q-48 0 -81.5 33.5t-33.5 80.5z" />
<glyph unicode="&#x2c6;" horiz-adv-x="1024" d="M217 1135l197 348h196l197 -348h-123l-172 229l-174 -229h-121z" />
<glyph unicode="&#x2dc;" horiz-adv-x="1024" d="M219 1182q18 99 68 151.5t125 52.5q14 0 29 -2.5t31 -7.5l97 -26q21 -6 33.5 -8.5t20.5 -2.5q33 0 56.5 18.5t37.5 55.5h88q-20 -102 -70.5 -155.5t-126.5 -53.5q-13 0 -29.5 2.5t-36.5 8.5l-96 26q-13 4 -25.5 6t-23.5 2q-31 0 -53.5 -17t-36.5 -50h-88z" />
<glyph unicode="&#x2000;" horiz-adv-x="986" />
<glyph unicode="&#x2001;" horiz-adv-x="1972" />
<glyph unicode="&#x2002;" horiz-adv-x="986" />
<glyph unicode="&#x2003;" horiz-adv-x="1972" />
<glyph unicode="&#x2004;" horiz-adv-x="657" />
<glyph unicode="&#x2005;" horiz-adv-x="493" />
<glyph unicode="&#x2006;" horiz-adv-x="328" />
<glyph unicode="&#x2007;" horiz-adv-x="328" />
<glyph unicode="&#x2008;" horiz-adv-x="246" />
<glyph unicode="&#x2009;" horiz-adv-x="394" />
<glyph unicode="&#x200a;" horiz-adv-x="109" />
<glyph unicode="&#x2010;" horiz-adv-x="668" d="M86 422v176h498v-176h-498z" />
<glyph unicode="&#x2011;" horiz-adv-x="668" d="M86 422v176h498v-176h-498z" />
<glyph unicode="&#x2012;" horiz-adv-x="668" d="M86 422v176h498v-176h-498z" />
<glyph unicode="&#x2013;" horiz-adv-x="1024" d="M0 436v148h1024v-148h-1024z" />
<glyph unicode="&#x2014;" horiz-adv-x="2048" d="M0 436v148h2048v-148h-2048z" />
<glyph unicode="&#x2018;" horiz-adv-x="508" d="M131 909v252q0 135 58.5 206t177.5 79v-115q-64 -13 -87.5 -42t-23.5 -95v-33h106v-252h-231z" />
<glyph unicode="&#x2019;" horiz-adv-x="508" d="M143 885v114q63 14 87 43.5t24 96.5v32h-107v250h230v-250q0 -136 -58 -207.5t-176 -78.5z" />
<glyph unicode="&#x201a;" horiz-adv-x="508" d="M123 -172q64 14 88.5 44.5t24.5 96.5v31h-109v252h231v-252q0 -135 -58.5 -206t-176.5 -79v113z" />
<glyph unicode="&#x201c;" horiz-adv-x="895" d="M139 909v252q0 136 58 206.5t176 78.5v-115q-64 -13 -87.5 -42t-23.5 -95v-33h107v-252h-230zM514 909v252q0 136 58 206.5t176 78.5v-115q-64 -13 -87.5 -42t-23.5 -95v-33h106v-252h-229z" />
<glyph unicode="&#x201d;" horiz-adv-x="895" d="M150 885v114q63 14 87.5 44.5t24.5 97.5v30h-106v250h229v-250q0 -135 -59 -207t-176 -79zM524 885v114q64 14 88.5 44.5t24.5 97.5v30h-107v250h230v-250q0 -135 -59 -207t-177 -79z" />
<glyph unicode="&#x201e;" horiz-adv-x="895" d="M131 -172q63 13 87 43t24 96v33h-107v252h230v-252q0 -136 -58 -206.5t-176 -78.5v113zM506 -172q63 13 86.5 43t23.5 96v33h-106v252h229v-252q0 -136 -57.5 -206.5t-175.5 -78.5v113z" />
<glyph unicode="&#x2022;" horiz-adv-x="1208" d="M307 762q0 123 87 209t210 86q122 0 208.5 -86.5t86.5 -208.5t-87.5 -209.5t-209.5 -87.5q-123 0 -209 87t-86 210z" />
<glyph unicode="&#x2026;" horiz-adv-x="2048" d="M223 0v252h238v-252h-238zM905 0v252h238v-252h-238zM1589 0v252h238v-252h-238z" />
<glyph unicode="&#x202f;" horiz-adv-x="394" />
<glyph unicode="&#x2039;" horiz-adv-x="569" d="M66 506l262 311h180l-258 -311l258 -313h-180z" />
<glyph unicode="&#x203a;" horiz-adv-x="569" d="M61 193l258 313l-258 311h181l260 -311l-260 -313h-181z" />
<glyph unicode="&#x205f;" horiz-adv-x="493" />
<glyph unicode="&#x20ac;" d="M0 532l23 113h87q-1 15 -1 26v38q0 28 2 71q1 12 2 19h-113l23 112h98q33 261 145.5 398t292.5 137q77 0 143.5 -39.5t106.5 -108.5v127h147v-401h-147q-20 112 -87.5 191t-148.5 79q-107 0 -172 -96t-88 -287h500l-39 -112l-469 -1q-1 -18 -1.5 -34t-0.5 -53v-66h420 l-37 -113h-375q21 -198 85 -294.5t175 -96.5q87 0 143 73t85 222l180 -57q-46 -201 -151.5 -304.5t-264.5 -103.5q-188 0 -301.5 143.5t-142.5 417.5h-119z" />
<glyph unicode="&#x2122;" horiz-adv-x="1706" d="M242 1378v80h452v-80h-172v-458h-108v458h-172zM813 920v538h150l151 -385l141 385h150v-538h-98v444l-166 -444h-56l-174 444v-444h-98z" />
<glyph unicode="&#xe000;" horiz-adv-x="1000" d="M0 0v1000h1000v-1000h-1000z" />
</font>
</defs>
</svg>
